<svg width="88" height="20" viewBox="0 0 88 20" fill="none" xmlns="http://www.w3.org/2000/svg">
<path d="M12.4759 15.7321H9.98092L8.61195 11.4465H3.86492L2.56112 15.7321H0.131348L4.83684 1.13491H7.74073L12.4759 15.7321ZM8.20301 9.64697L6.96439 5.83494C6.83404 5.44423 6.5851 4.52674 6.22952 3.08241H6.18805C6.04582 3.70396 5.80876 4.62145 5.49465 5.83494L4.2798 9.64697H8.20301ZM24.5541 10.3396C24.5541 12.1272 24.0678 13.542 23.096 14.5838C22.2244 15.5072 21.1401 15.9689 19.8481 15.9689C18.4494 15.9689 17.4482 15.4716 16.838 14.4772V20H14.4968V8.66438C14.4968 7.53972 14.4674 6.3854 14.408 5.20745H16.4699L16.6009 6.87675H16.6418C17.4245 5.62184 18.6098 4.98842 20.1976 4.98842C21.4423 4.98842 22.4794 5.47978 23.3094 6.46236C24.1387 7.44502 24.5541 8.74135 24.5541 10.3396ZM22.1714 10.4283C22.1714 9.40432 21.9401 8.55786 21.4781 7.89489C20.974 7.2023 20.2928 6.85895 19.4392 6.85895C18.8648 6.85895 18.337 7.0543 17.8686 7.43314C17.4009 7.81792 17.0923 8.32109 16.9504 8.93664C16.8853 9.16754 16.8495 9.41019 16.8437 9.64697V11.405C16.8437 12.1687 17.0808 12.8138 17.5491 13.3466C18.0169 13.8734 18.6277 14.1398 19.3798 14.1398C20.2628 14.1398 20.9503 13.7965 21.4423 13.1217C21.9222 12.435 22.1714 11.5412 22.1714 10.4283ZM36.679 10.3396C36.679 12.1272 36.1934 13.542 35.2209 14.5838C34.35 15.5072 33.2656 15.9689 31.9737 15.9689C30.575 15.9689 29.5731 15.4716 28.9629 14.4772V20H26.6217V8.66438C26.6217 7.53972 26.5924 6.3854 26.5329 5.20745H28.5955L28.7258 6.87675H28.7674C29.5495 5.62184 30.7347 4.98842 32.3232 4.98842C33.5679 4.98842 34.6049 5.47978 35.4343 6.46236C36.2585 7.44502 36.679 8.74135 36.679 10.3396ZM34.2905 10.4283C34.2905 9.40432 34.0599 8.55786 33.5973 7.89489C33.0938 7.2023 32.412 6.85895 31.559 6.85895C30.9839 6.85895 30.4561 7.0543 29.982 7.43314C29.5143 7.81792 29.2057 8.32109 29.0638 8.93664C28.9923 9.2267 28.9514 9.46348 28.9514 9.64697V11.405C28.9514 12.1687 29.1884 12.8138 29.6562 13.3466C30.1245 13.8734 30.7347 14.1398 31.4938 14.1398C32.3762 14.1398 33.0637 13.7965 33.5557 13.1217C34.0477 12.435 34.2905 11.5412 34.2905 10.4283ZM50.2326 11.6418C50.2326 12.8849 49.8 13.8971 48.9349 14.6725C47.9867 15.5249 46.6531 15.9511 44.9522 15.9511C43.3817 15.9511 42.1197 15.6493 41.1651 15.0395L41.7044 13.0921C42.7299 13.7018 43.8615 14.0036 45.0883 14.0036C45.9714 14.0036 46.6589 13.8024 47.1509 13.4058C47.6429 13.0092 47.8914 12.4765 47.8914 11.8135C47.8914 11.2216 47.6844 10.7243 47.2812 10.3159C46.8781 9.91335 46.2084 9.53451 45.2666 9.19122C42.7063 8.23818 41.4258 6.8412 41.4258 5.01216C41.4258 3.81641 41.8763 2.83382 42.783 2.07021C43.6839 1.30659 44.8813 0.921875 46.3746 0.921875C47.7023 0.921875 48.8103 1.15272 49.6933 1.6144L49.1068 3.52047C48.2767 3.0706 47.3464 2.85157 46.2972 2.85157C45.4736 2.85157 44.8219 3.05279 44.3593 3.45531C43.9682 3.81641 43.7727 4.25448 43.7727 4.77539C43.7727 5.34952 43.9983 5.829 44.4487 6.20191C44.8398 6.54527 45.5445 6.92411 46.5701 7.32663C47.8263 7.83566 48.7509 8.42167 49.3438 9.10245C49.9361 9.78316 50.2326 10.6296 50.2326 11.6418ZM57.996 6.96553H55.412V12.0739C55.412 13.3762 55.8682 14.0214 56.7813 14.0214C57.2017 14.0214 57.5455 13.9859 57.8241 13.9149L57.8893 15.6907C57.4273 15.8624 56.8228 15.9511 56.0701 15.9511C55.1456 15.9511 54.4223 15.667 53.9009 15.1047C53.3795 14.5423 53.1188 13.5952 53.1188 12.2693V6.96553H51.584V5.21339H53.1188V3.2837L55.4184 2.59111V5.21339H58.0017L57.996 6.96553ZM69.6174 10.3869C69.6174 12.0029 69.1554 13.3348 68.2308 14.3707C67.2647 15.442 65.9791 15.9748 64.3728 15.9748C62.8259 15.9748 61.5933 15.4598 60.6745 14.4417C59.7563 13.4176 59.3001 12.1213 59.3001 10.5645C59.3001 8.93077 59.7742 7.59889 60.7224 6.55707C61.6706 5.51526 62.9447 5.00029 64.5504 5.00029C66.0973 5.00029 67.342 5.51526 68.2781 6.53933C69.1669 7.52785 69.6174 8.81238 69.6174 10.3869ZM67.188 10.4402C67.188 9.47535 66.9804 8.64664 66.5593 7.95999C66.0679 7.12534 65.3683 6.70507 64.4558 6.70507C63.5191 6.70507 62.7965 7.12534 62.3102 7.95999C61.8898 8.65251 61.6821 9.49309 61.6821 10.4876C61.6821 11.4524 61.8898 12.2811 62.3102 12.9737C62.8144 13.8083 63.5255 14.2286 64.438 14.2286C65.3331 14.2286 66.0322 13.8024 66.5421 12.956C66.9746 12.2397 67.188 11.405 67.188 10.4402ZM77.2331 7.2674C76.9897 7.22598 76.7411 7.2023 76.4919 7.2023C75.6683 7.2023 75.0345 7.51011 74.584 8.13167C74.193 8.68212 73.9974 9.37471 73.9974 10.2094V15.7321H71.6563V8.52231C71.6563 7.4154 71.6384 6.31436 71.5911 5.20745H73.63L73.7125 7.22005H73.7776C74.0268 6.52746 74.4121 5.97107 74.9514 5.55081C75.437 5.18378 76.0357 4.98842 76.6459 4.98842C76.8657 4.98842 77.0549 5.00623 77.2331 5.0299V7.2674ZM87.705 9.97258C87.7108 10.3277 87.6808 10.6829 87.622 11.0321H80.5934C80.6171 12.0739 80.9608 12.8671 81.6126 13.4176C82.2049 13.9089 82.9697 14.1516 83.9122 14.1516C84.955 14.1516 85.9032 13.9859 86.7568 13.6544L87.1242 15.2763C86.1281 15.7084 84.9492 15.9275 83.5921 15.9275C81.9563 15.9275 80.6758 15.448 79.7398 14.4891C78.8094 13.5301 78.3411 12.2397 78.3411 10.6237C78.3411 9.03728 78.7737 7.71727 79.6452 6.66365C80.5519 5.53894 81.7845 4.97661 83.3314 4.97661C84.8483 4.97661 85.9977 5.53894 86.7805 6.66365C87.3907 7.55747 87.705 8.65844 87.705 9.97258ZM85.4706 9.36877C85.4885 8.67625 85.3345 8.07837 85.0144 7.56927C84.6112 6.91817 83.9831 6.59262 83.1473 6.59262C82.3831 6.59262 81.7608 6.91224 81.2803 7.5456C80.8893 8.04876 80.6586 8.65844 80.587 9.3629L85.4706 9.36877Z" fill="#1E2720"/>
</svg>
