<svg width="185" height="52" viewBox="0 0 185 52" fill="none" xmlns="http://www.w3.org/2000/svg">
<rect x="0.581543" width="184.124" height="52" rx="26" fill="white"/>
<path d="M51.6257 24.8813C51.5962 21.3474 54.5237 19.6249 54.66 19.5479C53.0007 17.1328 50.4286 16.8013 49.5219 16.7777C47.3588 16.5528 45.2668 18.0681 44.1645 18.0681C43.0444 18.0681 41.3495 16.8013 39.5183 16.8369C37.1655 16.8724 34.9668 18.2339 33.7638 20.3412C31.2747 24.6445 33.1297 30.9664 35.518 34.447C36.7092 36.1518 38.1019 38.0519 39.9272 37.9868C41.711 37.9157 42.3807 36.8502 44.5319 36.8502C46.6654 36.8502 47.2936 37.9868 49.1545 37.9453C51.0687 37.9157 52.2777 36.2346 53.4274 34.518C54.8082 32.5647 55.3594 30.6408 55.3831 30.5461C55.3357 30.5165 51.6613 29.1137 51.6257 24.8813ZM48.1115 14.4869C49.0715 13.2852 49.7293 11.6574 49.5456 10C48.1589 10.0592 46.4165 10.9589 45.4209 12.131C44.5379 13.1669 43.7437 14.8598 43.9512 16.4521C45.5039 16.5646 47.1099 15.6648 48.1115 14.4869Z" fill="#1E2720"/>
<path d="M77.4759 37.7321H74.9809L73.6119 33.4465H68.8649L67.5611 37.7321H65.1313L69.8368 23.1349H72.7407L77.4759 37.7321ZM73.203 31.647L71.9644 27.8349C71.834 27.4442 71.5851 26.5267 71.2295 25.0824H71.1881C71.0458 25.704 70.8088 26.6214 70.4947 27.8349L69.2798 31.647H73.203ZM89.5541 32.3396C89.5541 34.1272 89.0678 35.542 88.096 36.5838C87.2244 37.5072 86.1401 37.9689 84.8481 37.9689C83.4494 37.9689 82.4482 37.4716 81.838 36.4772V42H79.4968V30.6644C79.4968 29.5397 79.4674 28.3854 79.408 27.2075H81.4699L81.6009 28.8768H81.6418C82.4245 27.6218 83.6098 26.9884 85.1976 26.9884C86.4423 26.9884 87.4794 27.4798 88.3094 28.4624C89.1387 29.445 89.5541 30.7413 89.5541 32.3396ZM87.1714 32.4283C87.1714 31.4043 86.9401 30.5579 86.4781 29.8949C85.974 29.2023 85.2928 28.8589 84.4392 28.8589C83.8648 28.8589 83.337 29.0543 82.8686 29.4331C82.4009 29.8179 82.0923 30.3211 81.9504 30.9366C81.8853 31.1675 81.8495 31.4102 81.8437 31.647V33.405C81.8437 34.1687 82.0808 34.8138 82.5491 35.3466C83.0169 35.8734 83.6277 36.1398 84.3798 36.1398C85.2628 36.1398 85.9503 35.7965 86.4423 35.1217C86.9222 34.435 87.1714 33.5412 87.1714 32.4283ZM101.679 32.3396C101.679 34.1272 101.193 35.542 100.221 36.5838C99.35 37.5072 98.2656 37.9689 96.9737 37.9689C95.575 37.9689 94.5731 37.4716 93.9629 36.4772V42H91.6217V30.6644C91.6217 29.5397 91.5924 28.3854 91.5329 27.2075H93.5955L93.7258 28.8768H93.7674C94.5495 27.6218 95.7347 26.9884 97.3232 26.9884C98.5679 26.9884 99.6049 27.4798 100.434 28.4624C101.259 29.445 101.679 30.7413 101.679 32.3396ZM99.2905 32.4283C99.2905 31.4043 99.0599 30.5579 98.5973 29.8949C98.0938 29.2023 97.412 28.8589 96.559 28.8589C95.9839 28.8589 95.4561 29.0543 94.982 29.4331C94.5143 29.8179 94.2057 30.3211 94.0638 30.9366C93.9923 31.2267 93.9514 31.4635 93.9514 31.647V33.405C93.9514 34.1687 94.1884 34.8138 94.6562 35.3466C95.1245 35.8734 95.7347 36.1398 96.4938 36.1398C97.3762 36.1398 98.0637 35.7965 98.5557 35.1217C99.0477 34.435 99.2905 33.5412 99.2905 32.4283ZM115.233 33.6418C115.233 34.8849 114.8 35.8971 113.935 36.6725C112.987 37.5249 111.653 37.9511 109.952 37.9511C108.382 37.9511 107.12 37.6493 106.165 37.0395L106.704 35.0921C107.73 35.7018 108.862 36.0036 110.088 36.0036C110.971 36.0036 111.659 35.8024 112.151 35.4058C112.643 35.0092 112.891 34.4765 112.891 33.8135C112.891 33.2216 112.684 32.7243 112.281 32.3159C111.878 31.9134 111.208 31.5345 110.267 31.1912C107.706 30.2382 106.426 28.8412 106.426 27.0122C106.426 25.8164 106.876 24.8338 107.783 24.0702C108.684 23.3066 109.881 22.9219 111.375 22.9219C112.702 22.9219 113.81 23.1527 114.693 23.6144L114.107 25.5205C113.277 25.0706 112.346 24.8516 111.297 24.8516C110.474 24.8516 109.822 25.0528 109.359 25.4553C108.968 25.8164 108.773 26.2545 108.773 26.7754C108.773 27.3495 108.998 27.829 109.449 28.2019C109.84 28.5453 110.545 28.9241 111.57 29.3266C112.826 29.8357 113.751 30.4217 114.344 31.1024C114.936 31.7832 115.233 32.6296 115.233 33.6418ZM122.996 28.9655H120.412V34.0739C120.412 35.3762 120.868 36.0214 121.781 36.0214C122.202 36.0214 122.545 35.9859 122.824 35.9149L122.889 37.6907C122.427 37.8624 121.823 37.9511 121.07 37.9511C120.146 37.9511 119.422 37.667 118.901 37.1047C118.379 36.5423 118.119 35.5952 118.119 34.2693V28.9655H116.584V27.2134H118.119V25.2837L120.418 24.5911V27.2134H123.002L122.996 28.9655ZM134.617 32.3869C134.617 34.0029 134.155 35.3348 133.231 36.3707C132.265 37.442 130.979 37.9748 129.373 37.9748C127.826 37.9748 126.593 37.4598 125.674 36.4417C124.756 35.4176 124.3 34.1213 124.3 32.5645C124.3 30.9308 124.774 29.5989 125.722 28.5571C126.671 27.5153 127.945 27.0003 129.55 27.0003C131.097 27.0003 132.342 27.5153 133.278 28.5393C134.167 29.5279 134.617 30.8124 134.617 32.3869ZM132.188 32.4402C132.188 31.4754 131.98 30.6466 131.559 29.96C131.068 29.1253 130.368 28.7051 129.456 28.7051C128.519 28.7051 127.796 29.1253 127.31 29.96C126.89 30.6525 126.682 31.4931 126.682 32.4876C126.682 33.4524 126.89 34.2811 127.31 34.9737C127.814 35.8083 128.526 36.2286 129.438 36.2286C130.333 36.2286 131.032 35.8024 131.542 34.956C131.975 34.2397 132.188 33.405 132.188 32.4402ZM142.233 29.2674C141.99 29.226 141.741 29.2023 141.492 29.2023C140.668 29.2023 140.034 29.5101 139.584 30.1317C139.193 30.6821 138.997 31.3747 138.997 32.2094V37.7321H136.656V30.5223C136.656 29.4154 136.638 28.3144 136.591 27.2075H138.63L138.712 29.22H138.778C139.027 28.5275 139.412 27.9711 139.951 27.5508C140.437 27.1838 141.036 26.9884 141.646 26.9884C141.866 26.9884 142.055 27.0062 142.233 27.0299V29.2674ZM152.705 31.9726C152.711 32.3277 152.681 32.6829 152.622 33.0321H145.593C145.617 34.0739 145.961 34.8671 146.613 35.4176C147.205 35.9089 147.97 36.1516 148.912 36.1516C149.955 36.1516 150.903 35.9859 151.757 35.6544L152.124 37.2763C151.128 37.7084 149.949 37.9275 148.592 37.9275C146.956 37.9275 145.676 37.448 144.74 36.4891C143.809 35.5301 143.341 34.2397 143.341 32.6237C143.341 31.0373 143.774 29.7173 144.645 28.6637C145.552 27.5389 146.784 26.9766 148.331 26.9766C149.848 26.9766 150.998 27.5389 151.78 28.6637C152.391 29.5575 152.705 30.6584 152.705 31.9726ZM150.471 31.3688C150.488 30.6762 150.335 30.0784 150.014 29.5693C149.611 28.9182 148.983 28.5926 148.147 28.5926C147.383 28.5926 146.761 28.9122 146.28 29.5456C145.889 30.0488 145.659 30.6584 145.587 31.3629L150.471 31.3688Z" fill="#1E2720"/>
<path d="M68.1894 17.9793C67.5376 17.9793 66.9746 17.9497 66.5063 17.8964V10.8346C67.1642 10.734 67.828 10.6807 68.4917 10.6866C71.1763 10.6866 72.4149 12.0066 72.4149 14.1554C72.409 16.6356 70.9511 17.9793 68.1894 17.9793ZM68.5865 11.5923C68.225 11.5923 67.9169 11.616 67.662 11.6692V17.0322C67.7983 17.0559 68.065 17.0618 68.4384 17.0618C70.1984 17.0618 71.2 16.0614 71.2 14.1909C71.1941 12.5157 70.2874 11.5923 68.5865 11.5923ZM76.267 18.0325C74.7558 18.0325 73.772 16.902 73.772 15.3688C73.772 13.7706 74.7736 12.6341 76.35 12.6341C77.8434 12.6341 78.8452 13.7114 78.8452 15.2859C78.8452 16.902 77.8138 18.0325 76.267 18.0325ZM76.3085 13.4746C75.4788 13.4746 74.9455 14.2501 74.9455 15.3392C74.9455 16.4047 75.4907 17.1801 76.2967 17.1801C77.1086 17.1801 77.6479 16.3514 77.6479 15.3156C77.6538 14.2619 77.1204 13.4746 76.3085 13.4746ZM87.4737 12.7406L85.8559 17.9142H84.8009L84.1313 15.6707C83.9652 15.1202 83.8233 14.5638 83.7166 14.0015H83.693C83.6099 14.5638 83.4495 15.1321 83.2776 15.6707L82.5665 17.9142H81.5001L79.9768 12.7406H81.162L81.7486 15.1972C81.8854 15.7832 82.0036 16.3337 82.0988 16.8605H82.1224C82.2055 16.4225 82.3473 15.8838 82.5492 15.209L83.284 12.7406H84.2201L84.9255 15.1557C85.0974 15.7418 85.2335 16.316 85.3402 16.8605H85.3696C85.4469 16.3278 85.5594 15.7654 85.7198 15.1557L86.3479 12.7406H87.4737ZM93.4416 17.9142H92.2921V14.9427C92.2921 14.0252 91.9419 13.5694 91.2487 13.5694C90.5675 13.5694 90.0992 14.1554 90.0992 14.8361V17.9142H88.9497V14.2205C88.9497 13.7647 88.9376 13.2734 88.9082 12.7406H89.9216L89.9746 13.5397H90.004C90.3126 12.9893 90.9407 12.6341 91.6461 12.6341C92.7304 12.6341 93.4473 13.4628 93.4473 14.8183L93.4416 17.9142ZM96.6121 17.9142H95.4626V10.3669H96.6121V17.9142ZM100.814 18.0325C99.3028 18.0325 98.3188 16.902 98.3188 15.3688C98.3188 13.7706 99.3207 12.6341 100.897 12.6341C102.39 12.6341 103.392 13.7114 103.392 15.2859C103.392 16.902 102.355 18.0325 100.814 18.0325ZM100.855 13.4746C100.025 13.4746 99.4925 14.2501 99.4925 15.3392C99.4925 16.4047 100.038 17.1801 100.843 17.1801C101.655 17.1801 102.195 16.3514 102.195 15.3156C102.195 14.2619 101.668 13.4746 100.855 13.4746ZM107.931 17.9142L107.848 17.3163H107.819C107.469 17.7958 106.954 18.0266 106.302 18.0266C105.371 18.0266 104.713 17.3755 104.713 16.5054C104.713 15.2268 105.821 14.5697 107.742 14.5697V14.475C107.742 13.7943 107.381 13.451 106.669 13.451C106.159 13.451 105.709 13.5812 105.318 13.8357L105.087 13.0781C105.567 12.7821 106.165 12.6282 106.865 12.6282C108.216 12.6282 108.903 13.3385 108.903 14.765V16.6711C108.903 17.192 108.927 17.6004 108.98 17.9082L107.931 17.9142ZM107.772 15.3392C106.491 15.3392 105.851 15.647 105.851 16.381C105.851 16.9256 106.183 17.192 106.639 17.192C107.227 17.192 107.772 16.748 107.772 16.1383V15.3392ZM114.48 17.9142L114.427 17.0854H114.397C114.065 17.7129 113.508 18.0325 112.732 18.0325C111.481 18.0325 110.557 16.9375 110.557 15.3925C110.557 13.7765 111.517 12.6341 112.826 12.6341C113.52 12.6341 114.012 12.865 114.284 13.3385H114.308V10.3669H115.458V16.5172C115.458 17.0144 115.47 17.488 115.499 17.9082H114.48V17.9142ZM114.314 14.8716C114.314 14.1494 113.834 13.5279 113.099 13.5279C112.246 13.5279 111.724 14.2856 111.724 15.3452C111.724 16.387 112.263 17.1032 113.076 17.1032C113.798 17.1032 114.314 16.4758 114.314 15.7299V14.8716ZM122.771 18.0325C121.26 18.0325 120.276 16.902 120.276 15.3688C120.276 13.7706 121.277 12.6341 122.854 12.6341C124.347 12.6341 125.349 13.7114 125.349 15.2859C125.349 16.902 124.318 18.0325 122.771 18.0325ZM122.813 13.4746C121.983 13.4746 121.449 14.2501 121.449 15.3392C121.449 16.4047 121.995 17.1801 122.801 17.1801C123.613 17.1801 124.152 16.3514 124.152 15.3156C124.158 14.2619 123.624 13.4746 122.813 13.4746ZM131.542 17.9142H130.392V14.9427C130.392 14.0252 130.043 13.5694 129.349 13.5694C128.667 13.5694 128.2 14.1554 128.2 14.8361V17.9142H127.05V14.2205C127.05 13.7647 127.038 13.2734 127.008 12.7406H128.021L128.075 13.5397H128.105C128.413 12.9893 129.041 12.6341 129.746 12.6341C130.831 12.6341 131.548 13.4628 131.548 14.8183V17.9142H131.542ZM139.282 13.6048H138.014V16.1147C138.014 16.754 138.233 17.0736 138.683 17.0736C138.884 17.0736 139.056 17.05 139.193 17.0203L139.222 17.8905C138.998 17.9734 138.701 18.0207 138.328 18.0207C137.421 18.0207 136.876 17.5235 136.876 16.2094V13.599H136.117V12.7347H136.876V11.7876L138.008 11.4443V12.7347H139.276L139.282 13.6048ZM145.38 17.9142H144.23V14.9663C144.23 14.0429 143.88 13.5753 143.187 13.5753C142.588 13.5753 142.038 13.9778 142.038 14.8006V17.9201H140.888V10.3669H142.038V13.4746H142.061C142.423 12.9123 142.95 12.6341 143.62 12.6341C144.716 12.6341 145.386 13.4864 145.386 14.8361L145.38 17.9142ZM151.62 15.6056H148.165C148.189 16.5823 148.835 17.1387 149.795 17.1387C150.305 17.1387 150.779 17.0559 151.193 16.896L151.372 17.6951C150.88 17.9082 150.305 18.0148 149.635 18.0148C148.017 18.0148 147.057 16.9907 147.057 15.4103C147.057 13.8239 148.041 12.6341 149.505 12.6341C150.826 12.6341 151.656 13.6108 151.656 15.0907C151.667 15.2564 151.656 15.4339 151.62 15.6056ZM150.565 14.7828C150.565 13.9837 150.163 13.4214 149.428 13.4214C148.764 13.4214 148.243 13.9955 148.171 14.7828H150.565Z" fill="#1E2720"/>
</svg>
