<svg width="103" height="20" viewBox="0 0 103 20" fill="none" xmlns="http://www.w3.org/2000/svg">
<mask id="path-1-inside-1_1_153" fill="white">
<path d="M33.3002 5.59398C30.4138 5.59398 28.1286 7.71946 28.1286 10.6715C28.1286 13.5055 30.4138 15.749 33.3002 15.749C36.1867 15.749 38.4726 13.6235 38.4726 10.6715C38.4726 7.71946 36.1867 5.59398 33.3002 5.59398ZM33.3002 13.6235C31.7365 13.6235 30.4138 12.3247 30.4138 10.5535C30.4138 8.78219 31.7365 7.48332 33.3002 7.48332C34.864 7.48332 36.1867 8.66413 36.1867 10.5535C36.1867 12.4427 34.864 13.6235 33.3002 13.6235ZM22.114 5.59398C19.2275 5.59398 16.9422 7.71946 16.9422 10.6715C16.9422 13.5055 19.2275 15.749 22.114 15.749C25.0012 15.749 27.2863 13.6235 27.2863 10.6715C27.2863 7.71946 25.0012 5.59398 22.114 5.59398ZM22.114 13.6235C20.5509 13.6235 19.2275 12.3247 19.2275 10.5535C19.2275 8.78219 20.5509 7.48332 22.114 7.48332C23.6777 7.48332 25.0012 8.66413 25.0012 10.5535C25.0012 12.4427 23.6777 13.6235 22.114 13.6235ZM8.76321 7.12905V9.25453H13.9352C13.8149 10.4354 13.3338 11.38 12.7324 11.9704C12.0108 12.6789 10.8079 13.5055 8.76321 13.5055C5.51565 13.5055 3.11001 11.0257 3.11001 7.83759C3.11001 4.64938 5.63591 2.16963 8.76321 2.16963C10.4471 2.16963 11.7702 2.8781 12.7324 3.70471L14.2961 2.16963C12.973 0.988829 11.289 0.0441589 8.88348 0.0441589C4.5534 0.0441589 0.824707 3.58664 0.824707 7.83759C0.824707 12.0885 4.5534 15.631 8.88348 15.631C11.289 15.631 12.973 14.9225 14.4163 13.3874C15.8597 11.9704 16.3408 9.963 16.3408 8.42799C16.3408 7.95566 16.3408 7.48332 16.2205 7.12905H8.76321ZM63.3706 8.78219C62.8894 7.60139 61.686 5.59398 59.0405 5.59398C56.3942 5.59398 54.2292 7.60139 54.2292 10.6715C54.2292 13.5055 56.3942 15.749 59.2807 15.749C61.5659 15.749 63.0095 14.3321 63.4907 13.5055L61.8068 12.3247C61.2055 13.1512 60.4834 13.7416 59.2807 13.7416C58.0781 13.7416 57.3559 13.2693 56.7546 12.2066L63.6108 9.3726L63.3706 8.78219ZM56.3942 10.4354C56.3942 8.54606 57.958 7.48332 59.0405 7.48332C59.882 7.48332 60.7243 7.95566 60.9646 8.54606L56.3942 10.4354ZM50.7407 15.2767H53.0259V0.516494H50.7407V15.2767ZM47.1328 6.65672C46.5307 6.06631 45.569 5.47591 44.3657 5.47591C41.8403 5.47591 39.4343 7.71946 39.4343 10.5535C39.4343 13.3874 41.7202 15.5129 44.3657 15.5129C45.569 15.5129 46.5307 14.9225 47.0119 14.3321H47.1328V15.0406C47.1328 16.9298 46.0502 17.9926 44.3657 17.9926C43.0429 17.9926 42.0805 17.048 41.8403 16.2214L39.9155 17.048C40.5168 18.3468 41.9604 20 44.4865 20C47.1328 20 49.2978 18.4649 49.2978 14.8044V5.83018H47.1328V6.65672ZM44.4865 13.6235C42.9228 13.6235 41.5993 12.3247 41.5993 10.5535C41.5993 8.78219 42.9228 7.48332 44.4865 7.48332C46.0502 7.48332 47.2529 8.78219 47.2529 10.5535C47.2529 12.3247 46.0502 13.6235 44.4865 13.6235ZM73.8347 0.516494H68.4221V15.2767H70.7072V9.72687H73.8347C76.3601 9.72687 78.7661 7.95566 78.7661 5.12171C78.7661 2.2877 76.3601 0.516494 73.8347 0.516494ZM73.9548 7.71946H70.7072V2.64197H73.9548C75.6387 2.64197 76.6011 4.05897 76.6011 5.12171C76.4809 6.30252 75.5185 7.71946 73.9548 7.71946ZM87.7873 5.59398C86.1028 5.59398 84.4189 6.30252 83.8176 7.83759L85.8625 8.66413C86.3437 7.83759 87.0652 7.60139 87.9074 7.60139C89.1101 7.60139 90.1926 8.30993 90.3127 9.49073V9.6088C89.9524 9.3726 88.99 9.01839 88.0276 9.01839C85.8625 9.01839 83.6975 10.1992 83.6975 12.3247C83.6975 14.3321 85.5015 15.631 87.4263 15.631C88.99 15.631 89.7114 14.9225 90.3127 14.214H90.4329V15.3948H92.5979V9.72687C92.3577 7.01099 90.3127 5.59398 87.7873 5.59398ZM87.5464 13.6235C86.8249 13.6235 85.7424 13.2693 85.7424 12.3247C85.7424 11.1439 87.0652 10.7896 88.1477 10.7896C89.1101 10.7896 89.5913 11.0258 90.1926 11.2619C89.9524 12.6789 88.749 13.6235 87.5464 13.6235ZM100.176 5.83018L97.6501 12.2066H97.53L94.8838 5.83018H92.4778L96.4475 14.8044L94.1616 19.7638H96.4475L102.582 5.83018H100.176ZM79.9687 15.2767H82.2539V0.516494H79.9687V15.2767Z"/>
</mask>
<path d="M33.3002 5.59398C30.4138 5.59398 28.1286 7.71946 28.1286 10.6715C28.1286 13.5055 30.4138 15.749 33.3002 15.749C36.1867 15.749 38.4726 13.6235 38.4726 10.6715C38.4726 7.71946 36.1867 5.59398 33.3002 5.59398ZM33.3002 13.6235C31.7365 13.6235 30.4138 12.3247 30.4138 10.5535C30.4138 8.78219 31.7365 7.48332 33.3002 7.48332C34.864 7.48332 36.1867 8.66413 36.1867 10.5535C36.1867 12.4427 34.864 13.6235 33.3002 13.6235ZM22.114 5.59398C19.2275 5.59398 16.9422 7.71946 16.9422 10.6715C16.9422 13.5055 19.2275 15.749 22.114 15.749C25.0012 15.749 27.2863 13.6235 27.2863 10.6715C27.2863 7.71946 25.0012 5.59398 22.114 5.59398ZM22.114 13.6235C20.5509 13.6235 19.2275 12.3247 19.2275 10.5535C19.2275 8.78219 20.5509 7.48332 22.114 7.48332C23.6777 7.48332 25.0012 8.66413 25.0012 10.5535C25.0012 12.4427 23.6777 13.6235 22.114 13.6235ZM8.76321 7.12905V9.25453H13.9352C13.8149 10.4354 13.3338 11.38 12.7324 11.9704C12.0108 12.6789 10.8079 13.5055 8.76321 13.5055C5.51565 13.5055 3.11001 11.0257 3.11001 7.83759C3.11001 4.64938 5.63591 2.16963 8.76321 2.16963C10.4471 2.16963 11.7702 2.8781 12.7324 3.70471L14.2961 2.16963C12.973 0.988829 11.289 0.0441589 8.88348 0.0441589C4.5534 0.0441589 0.824707 3.58664 0.824707 7.83759C0.824707 12.0885 4.5534 15.631 8.88348 15.631C11.289 15.631 12.973 14.9225 14.4163 13.3874C15.8597 11.9704 16.3408 9.963 16.3408 8.42799C16.3408 7.95566 16.3408 7.48332 16.2205 7.12905H8.76321ZM63.3706 8.78219C62.8894 7.60139 61.686 5.59398 59.0405 5.59398C56.3942 5.59398 54.2292 7.60139 54.2292 10.6715C54.2292 13.5055 56.3942 15.749 59.2807 15.749C61.5659 15.749 63.0095 14.3321 63.4907 13.5055L61.8068 12.3247C61.2055 13.1512 60.4834 13.7416 59.2807 13.7416C58.0781 13.7416 57.3559 13.2693 56.7546 12.2066L63.6108 9.3726L63.3706 8.78219ZM56.3942 10.4354C56.3942 8.54606 57.958 7.48332 59.0405 7.48332C59.882 7.48332 60.7243 7.95566 60.9646 8.54606L56.3942 10.4354ZM50.7407 15.2767H53.0259V0.516494H50.7407V15.2767ZM47.1328 6.65672C46.5307 6.06631 45.569 5.47591 44.3657 5.47591C41.8403 5.47591 39.4343 7.71946 39.4343 10.5535C39.4343 13.3874 41.7202 15.5129 44.3657 15.5129C45.569 15.5129 46.5307 14.9225 47.0119 14.3321H47.1328V15.0406C47.1328 16.9298 46.0502 17.9926 44.3657 17.9926C43.0429 17.9926 42.0805 17.048 41.8403 16.2214L39.9155 17.048C40.5168 18.3468 41.9604 20 44.4865 20C47.1328 20 49.2978 18.4649 49.2978 14.8044V5.83018H47.1328V6.65672ZM44.4865 13.6235C42.9228 13.6235 41.5993 12.3247 41.5993 10.5535C41.5993 8.78219 42.9228 7.48332 44.4865 7.48332C46.0502 7.48332 47.2529 8.78219 47.2529 10.5535C47.2529 12.3247 46.0502 13.6235 44.4865 13.6235ZM73.8347 0.516494H68.4221V15.2767H70.7072V9.72687H73.8347C76.3601 9.72687 78.7661 7.95566 78.7661 5.12171C78.7661 2.2877 76.3601 0.516494 73.8347 0.516494ZM73.9548 7.71946H70.7072V2.64197H73.9548C75.6387 2.64197 76.6011 4.05897 76.6011 5.12171C76.4809 6.30252 75.5185 7.71946 73.9548 7.71946ZM87.7873 5.59398C86.1028 5.59398 84.4189 6.30252 83.8176 7.83759L85.8625 8.66413C86.3437 7.83759 87.0652 7.60139 87.9074 7.60139C89.1101 7.60139 90.1926 8.30993 90.3127 9.49073V9.6088C89.9524 9.3726 88.99 9.01839 88.0276 9.01839C85.8625 9.01839 83.6975 10.1992 83.6975 12.3247C83.6975 14.3321 85.5015 15.631 87.4263 15.631C88.99 15.631 89.7114 14.9225 90.3127 14.214H90.4329V15.3948H92.5979V9.72687C92.3577 7.01099 90.3127 5.59398 87.7873 5.59398ZM87.5464 13.6235C86.8249 13.6235 85.7424 13.2693 85.7424 12.3247C85.7424 11.1439 87.0652 10.7896 88.1477 10.7896C89.1101 10.7896 89.5913 11.0258 90.1926 11.2619C89.9524 12.6789 88.749 13.6235 87.5464 13.6235ZM100.176 5.83018L97.6501 12.2066H97.53L94.8838 5.83018H92.4778L96.4475 14.8044L94.1616 19.7638H96.4475L102.582 5.83018H100.176ZM79.9687 15.2767H82.2539V0.516494H79.9687V15.2767Z" fill="#1E2720" stroke="black" stroke-width="2" mask="url(#path-1-inside-1_1_153)"/>
</svg>
