<svg width="205" height="52" viewBox="0 0 205 52" fill="none" xmlns="http://www.w3.org/2000/svg">
<rect x="0.576172" y="3.05176e-05" width="204.005" height="51.9999" rx="26" fill="white"/>
<path d="M78.4026 14.015C78.4026 14.9597 78.162 15.7863 77.5606 16.3767C76.8389 17.0851 75.997 17.4394 74.9145 17.4394C73.832 17.4394 72.99 17.0851 72.2683 16.3767C71.5467 15.6681 71.1858 14.8416 71.1858 13.7789C71.1858 12.7161 71.5467 11.8896 72.2683 11.1811C72.99 10.4726 73.832 10.1183 74.9145 10.1183C75.3956 10.1183 75.8767 10.2364 76.3578 10.4726C76.8389 10.7087 77.1998 10.9449 77.4403 11.2991L76.8389 11.8895C76.3578 11.2991 75.7564 11.063 74.9145 11.063C74.1928 11.063 73.4711 11.2991 72.99 11.8895C72.3886 12.3619 72.148 13.0704 72.148 13.8969C72.148 14.7235 72.3886 15.432 72.99 15.9043C73.5914 16.3767 74.1928 16.7309 74.9145 16.7309C75.7564 16.7309 76.3578 16.4947 76.9593 15.9043C77.32 15.5501 77.5606 15.0777 77.5606 14.4873H74.9145V13.6608H78.4026C78.4026 13.6608 78.4026 13.7789 78.4026 14.015Z" fill="#1E2720" stroke="#1E2720" stroke-width="0.170257" stroke-miterlimit="10"/>
<path d="M83.9359 11.063H80.6883V13.3065H83.6953V14.1331H80.6883V16.3767H83.9359V17.2032H79.7261V10.1183H83.9359V11.063Z" fill="#1E2720" stroke="#1E2720" stroke-width="0.170257" stroke-miterlimit="10"/>
<path d="M87.9055 17.2032H86.943V10.9449H84.8982V10.1183H89.9497V10.9449H87.9055V17.2032Z" fill="#1E2720" stroke="#1E2720" stroke-width="0.170257" stroke-miterlimit="10"/>
<path d="M93.438 17.2032V10.1183H94.3997V17.2032H93.438Z" fill="#1E2720" stroke="#1E2720" stroke-width="0.170257" stroke-miterlimit="10"/>
<path d="M98.4895 17.2032H97.5278V10.9449H95.4829V10.1183H100.414V10.9449H98.3694V17.2032H98.4895Z" fill="#1E2720" stroke="#1E2720" stroke-width="0.170257" stroke-miterlimit="10"/>
<path d="M109.916 16.3767C109.195 17.0851 108.353 17.4394 107.27 17.4394C106.187 17.4394 105.346 17.0851 104.624 16.3767C103.902 15.6681 103.541 14.8416 103.541 13.7789C103.541 12.7161 103.902 11.8896 104.624 11.1811C105.346 10.4726 106.187 10.1183 107.27 10.1183C108.353 10.1183 109.195 10.4726 109.916 11.1811C110.638 11.8896 110.999 12.7161 110.999 13.7789C110.999 14.7235 110.638 15.6681 109.916 16.3767ZM105.346 15.7863C105.827 16.2586 106.549 16.6128 107.27 16.6128C107.992 16.6128 108.714 16.3767 109.195 15.7863C109.676 15.3139 110.036 14.6055 110.036 13.7789C110.036 12.9523 109.796 12.2438 109.195 11.7715C108.714 11.2991 107.992 10.9449 107.27 10.9449C106.549 10.9449 105.827 11.1811 105.346 11.7715C104.865 12.2438 104.504 12.9523 104.504 13.7789C104.504 14.4873 104.745 15.1959 105.346 15.7863Z" fill="#1E2720" stroke="#1E2720" stroke-width="0.170257" stroke-miterlimit="10"/>
<path d="M112.323 17.2032V10.1183H113.405L116.893 15.6681V14.2512V10.1183H117.855V17.2032H116.893L113.164 11.4173V12.8342V17.2032H112.323Z" fill="#1E2720" stroke="#1E2720" stroke-width="0.170257" stroke-miterlimit="10"/>
<mask id="path-9-inside-1_1_144" fill="white">
<path d="M103.3 27.594C100.414 27.594 98.1286 29.7195 98.1286 32.6715C98.1286 35.5055 100.414 37.749 103.3 37.749C106.187 37.749 108.473 35.6235 108.473 32.6715C108.473 29.7195 106.187 27.594 103.3 27.594ZM103.3 35.6235C101.737 35.6235 100.414 34.3247 100.414 32.5535C100.414 30.7822 101.737 29.4833 103.3 29.4833C104.864 29.4833 106.187 30.6641 106.187 32.5535C106.187 34.4427 104.864 35.6235 103.3 35.6235ZM92.114 27.594C89.2275 27.594 86.9422 29.7195 86.9422 32.6715C86.9422 35.5055 89.2275 37.749 92.114 37.749C95.0012 37.749 97.2863 35.6235 97.2863 32.6715C97.2863 29.7195 95.0012 27.594 92.114 27.594ZM92.114 35.6235C90.5509 35.6235 89.2275 34.3247 89.2275 32.5535C89.2275 30.7822 90.5509 29.4833 92.114 29.4833C93.6777 29.4833 95.0012 30.6641 95.0012 32.5535C95.0012 34.4427 93.6777 35.6235 92.114 35.6235ZM78.7632 29.1291V31.2545H83.9352C83.8149 32.4354 83.3338 33.38 82.7324 33.9704C82.0108 34.6789 80.8079 35.5055 78.7632 35.5055C75.5157 35.5055 73.11 33.0257 73.11 29.8376C73.11 26.6494 75.6359 24.1696 78.7632 24.1696C80.4471 24.1696 81.7702 24.8781 82.7324 25.7047L84.2961 24.1696C82.973 22.9888 81.289 22.0442 78.8835 22.0442C74.5534 22.0442 70.8247 25.5866 70.8247 29.8376C70.8247 34.0885 74.5534 37.631 78.8835 37.631C81.289 37.631 82.973 36.9225 84.4163 35.3874C85.8597 33.9704 86.3408 31.963 86.3408 30.428C86.3408 29.9557 86.3408 29.4833 86.2205 29.1291H78.7632ZM133.371 30.7822C132.889 29.6014 131.686 27.594 129.04 27.594C126.394 27.594 124.229 29.6014 124.229 32.6715C124.229 35.5055 126.394 37.749 129.281 37.749C131.566 37.749 133.009 36.3321 133.491 35.5055L131.807 34.3247C131.206 35.1512 130.483 35.7416 129.281 35.7416C128.078 35.7416 127.356 35.2693 126.755 34.2066L133.611 31.3726L133.371 30.7822ZM126.394 32.4354C126.394 30.5461 127.958 29.4833 129.04 29.4833C129.882 29.4833 130.724 29.9557 130.965 30.5461L126.394 32.4354ZM120.741 37.2767H123.026V22.5165H120.741V37.2767ZM117.133 28.6567C116.531 28.0663 115.569 27.4759 114.366 27.4759C111.84 27.4759 109.434 29.7195 109.434 32.5535C109.434 35.3874 111.72 37.5129 114.366 37.5129C115.569 37.5129 116.531 36.9225 117.012 36.3321H117.133V37.0406C117.133 38.9298 116.05 39.9926 114.366 39.9926C113.043 39.9926 112.081 39.048 111.84 38.2214L109.915 39.048C110.517 40.3468 111.96 42 114.487 42C117.133 42 119.298 40.4649 119.298 36.8044V27.8302H117.133V28.6567ZM114.487 35.6235C112.923 35.6235 111.599 34.3247 111.599 32.5535C111.599 30.7822 112.923 29.4833 114.487 29.4833C116.05 29.4833 117.253 30.7822 117.253 32.5535C117.253 34.3247 116.05 35.6235 114.487 35.6235ZM143.835 22.5165H138.422V37.2767H140.707V31.7269H143.835C146.36 31.7269 148.766 29.9557 148.766 27.1217C148.766 24.2877 146.36 22.5165 143.835 22.5165ZM143.955 29.7195H140.707V24.642H143.955C145.639 24.642 146.601 26.059 146.601 27.1217C146.481 28.3025 145.519 29.7195 143.955 29.7195ZM157.787 27.594C156.103 27.594 154.419 28.3025 153.818 29.8376L155.863 30.6641C156.344 29.8376 157.065 29.6014 157.907 29.6014C159.11 29.6014 160.193 30.3099 160.313 31.4907V31.6088C159.952 31.3726 158.99 31.0184 158.028 31.0184C155.863 31.0184 153.697 32.1992 153.697 34.3247C153.697 36.3321 155.501 37.631 157.426 37.631C158.99 37.631 159.711 36.9225 160.313 36.214H160.433V37.3948H162.598V31.7269C162.358 29.011 160.313 27.594 157.787 27.594ZM157.546 35.6235C156.825 35.6235 155.742 35.2693 155.742 34.3247C155.742 33.1439 157.065 32.7896 158.148 32.7896C159.11 32.7896 159.591 33.0258 160.193 33.2619C159.952 34.6789 158.749 35.6235 157.546 35.6235ZM170.176 27.8302L167.65 34.2066H167.53L164.884 27.8302H162.478L166.447 36.8044L164.162 41.7638H166.447L172.582 27.8302H170.176ZM149.969 37.2767H152.254V22.5165H149.969V37.2767Z"/>
</mask>
<path d="M103.3 27.594C100.414 27.594 98.1286 29.7195 98.1286 32.6715C98.1286 35.5055 100.414 37.749 103.3 37.749C106.187 37.749 108.473 35.6235 108.473 32.6715C108.473 29.7195 106.187 27.594 103.3 27.594ZM103.3 35.6235C101.737 35.6235 100.414 34.3247 100.414 32.5535C100.414 30.7822 101.737 29.4833 103.3 29.4833C104.864 29.4833 106.187 30.6641 106.187 32.5535C106.187 34.4427 104.864 35.6235 103.3 35.6235ZM92.114 27.594C89.2275 27.594 86.9422 29.7195 86.9422 32.6715C86.9422 35.5055 89.2275 37.749 92.114 37.749C95.0012 37.749 97.2863 35.6235 97.2863 32.6715C97.2863 29.7195 95.0012 27.594 92.114 27.594ZM92.114 35.6235C90.5509 35.6235 89.2275 34.3247 89.2275 32.5535C89.2275 30.7822 90.5509 29.4833 92.114 29.4833C93.6777 29.4833 95.0012 30.6641 95.0012 32.5535C95.0012 34.4427 93.6777 35.6235 92.114 35.6235ZM78.7632 29.1291V31.2545H83.9352C83.8149 32.4354 83.3338 33.38 82.7324 33.9704C82.0108 34.6789 80.8079 35.5055 78.7632 35.5055C75.5157 35.5055 73.11 33.0257 73.11 29.8376C73.11 26.6494 75.6359 24.1696 78.7632 24.1696C80.4471 24.1696 81.7702 24.8781 82.7324 25.7047L84.2961 24.1696C82.973 22.9888 81.289 22.0442 78.8835 22.0442C74.5534 22.0442 70.8247 25.5866 70.8247 29.8376C70.8247 34.0885 74.5534 37.631 78.8835 37.631C81.289 37.631 82.973 36.9225 84.4163 35.3874C85.8597 33.9704 86.3408 31.963 86.3408 30.428C86.3408 29.9557 86.3408 29.4833 86.2205 29.1291H78.7632ZM133.371 30.7822C132.889 29.6014 131.686 27.594 129.04 27.594C126.394 27.594 124.229 29.6014 124.229 32.6715C124.229 35.5055 126.394 37.749 129.281 37.749C131.566 37.749 133.009 36.3321 133.491 35.5055L131.807 34.3247C131.206 35.1512 130.483 35.7416 129.281 35.7416C128.078 35.7416 127.356 35.2693 126.755 34.2066L133.611 31.3726L133.371 30.7822ZM126.394 32.4354C126.394 30.5461 127.958 29.4833 129.04 29.4833C129.882 29.4833 130.724 29.9557 130.965 30.5461L126.394 32.4354ZM120.741 37.2767H123.026V22.5165H120.741V37.2767ZM117.133 28.6567C116.531 28.0663 115.569 27.4759 114.366 27.4759C111.84 27.4759 109.434 29.7195 109.434 32.5535C109.434 35.3874 111.72 37.5129 114.366 37.5129C115.569 37.5129 116.531 36.9225 117.012 36.3321H117.133V37.0406C117.133 38.9298 116.05 39.9926 114.366 39.9926C113.043 39.9926 112.081 39.048 111.84 38.2214L109.915 39.048C110.517 40.3468 111.96 42 114.487 42C117.133 42 119.298 40.4649 119.298 36.8044V27.8302H117.133V28.6567ZM114.487 35.6235C112.923 35.6235 111.599 34.3247 111.599 32.5535C111.599 30.7822 112.923 29.4833 114.487 29.4833C116.05 29.4833 117.253 30.7822 117.253 32.5535C117.253 34.3247 116.05 35.6235 114.487 35.6235ZM143.835 22.5165H138.422V37.2767H140.707V31.7269H143.835C146.36 31.7269 148.766 29.9557 148.766 27.1217C148.766 24.2877 146.36 22.5165 143.835 22.5165ZM143.955 29.7195H140.707V24.642H143.955C145.639 24.642 146.601 26.059 146.601 27.1217C146.481 28.3025 145.519 29.7195 143.955 29.7195ZM157.787 27.594C156.103 27.594 154.419 28.3025 153.818 29.8376L155.863 30.6641C156.344 29.8376 157.065 29.6014 157.907 29.6014C159.11 29.6014 160.193 30.3099 160.313 31.4907V31.6088C159.952 31.3726 158.99 31.0184 158.028 31.0184C155.863 31.0184 153.697 32.1992 153.697 34.3247C153.697 36.3321 155.501 37.631 157.426 37.631C158.99 37.631 159.711 36.9225 160.313 36.214H160.433V37.3948H162.598V31.7269C162.358 29.011 160.313 27.594 157.787 27.594ZM157.546 35.6235C156.825 35.6235 155.742 35.2693 155.742 34.3247C155.742 33.1439 157.065 32.7896 158.148 32.7896C159.11 32.7896 159.591 33.0258 160.193 33.2619C159.952 34.6789 158.749 35.6235 157.546 35.6235ZM170.176 27.8302L167.65 34.2066H167.53L164.884 27.8302H162.478L166.447 36.8044L164.162 41.7638H166.447L172.582 27.8302H170.176ZM149.969 37.2767H152.254V22.5165H149.969V37.2767Z" fill="#1E2720" stroke="black" stroke-width="2" mask="url(#path-9-inside-1_1_144)"/>
<path d="M33.2978 40.2291C32.8167 39.993 32.5762 39.4026 32.5762 38.8122C32.5762 38.694 32.5762 38.4579 32.5762 38.3398C32.5762 29.6018 32.5762 20.8637 32.5762 12.2437C32.5762 11.7714 32.6964 11.4172 32.8167 10.9449C32.937 10.7087 33.1776 10.4725 33.4182 10.2364C38.5902 15.3139 43.6419 20.3914 48.6936 25.4689C43.5216 30.1921 38.4699 35.1516 33.2978 40.2291Z" fill="#1E2720"/>
<path d="M53.7451 20.2731C52.3017 21.6901 50.738 23.1071 49.2947 24.6422C44.4835 19.8008 39.5521 14.9595 34.7408 10.1181C34.7408 10.1181 34.7408 10 34.8611 10C41.1157 13.4244 47.3702 16.8488 53.7451 20.2731Z" fill="#1E2720"/>
<path d="M34.741 40.229C39.5522 35.5057 44.4836 30.7825 49.2949 26.0592C50.6179 27.358 52.0613 28.657 53.6249 30.0739C47.3703 33.4983 41.1158 36.9227 34.8612 40.229H34.741Z" fill="#1E2720"/>
<path d="M54.4668 29.6013C52.9032 28.1844 51.4599 26.7674 49.8962 25.3505C51.4599 23.8154 53.0235 22.2803 54.5871 20.7452C55.0682 20.9814 55.5494 21.2176 56.0305 21.5718C57.2333 22.2803 58.5564 22.8707 59.7592 23.5792C60.1201 23.6973 60.3606 23.9335 60.6011 24.2877C61.0822 24.8781 61.0822 25.4685 60.6011 26.0589C60.3606 26.2951 60.1201 26.5313 59.7592 26.6493C58.0753 27.7121 56.2711 28.6567 54.4668 29.6013Z" fill="#1E2720"/>
</svg>
