<svg width="126" height="40" viewBox="0 0 126 40" fill="none" xmlns="http://www.w3.org/2000/svg">
<path d="M27.8689 12.0511C27.6861 12.303 27.5033 12.5548 27.284 12.7707C26.1873 14.0298 24.7616 14.8933 23.1896 15.361L21.9467 15.6488L21.8005 15.6847L10.2119 18.311L8.12817 18.7787C9.18832 18.5269 10.1388 17.9153 10.8334 17.0519C11.0162 16.836 11.199 16.5842 11.3452 16.2963C11.4914 16.0445 11.6011 15.7567 11.7107 15.4689C12.1129 14.2817 12.0763 13.0225 11.6376 11.9432C11.6011 11.9072 11.6011 11.8353 11.5645 11.7993C10.7603 9.74864 10.7237 7.41017 11.6376 5.25158C11.7473 4.96377 11.8935 4.71193 12.0398 4.42412C12.186 4.17229 12.3322 3.92045 12.515 3.66862C15.1471 0.10695 20.0823 -1.08027 24.067 1.07831C28.0151 3.2369 29.6236 8.02177 27.8689 12.0511Z" fill="url(#paint0_linear_1_641)"/>
<path d="M27.4669 12.8426C27.3206 13.0944 27.1378 13.3822 26.9916 13.5981C26.6992 13.9938 26.3701 14.3896 26.0411 14.7493C24.7616 16.0085 23.1166 16.872 21.3618 17.1598C21.3253 17.1598 21.2887 17.1598 21.2522 17.1957C21.0694 17.2317 20.8866 17.2677 20.7038 17.3396L18.8029 17.7714L7.61645 20.3257L6.5563 20.5775L6.3004 20.6495C4.58223 21.0812 2.97373 22.0166 1.76735 23.3837C1.58456 23.5995 1.36522 23.8514 1.21899 24.1032C1.25555 23.7434 1.40178 23.4556 1.54801 23.2038C1.69423 22.952 1.84046 22.7001 2.02325 22.4483C2.3157 22.0526 2.60816 21.6568 2.97373 21.333C4.25322 20.0739 5.86172 19.2104 7.61645 18.8866C7.61645 18.8866 7.61645 18.8866 7.65301 18.8866C7.72612 18.8866 7.79924 18.8507 7.87235 18.8507C7.94546 18.8507 8.05513 18.8147 8.12825 18.7787H8.16481L10.2485 18.311L21.8371 15.6847L21.9833 15.6488L23.2262 15.3609C24.7616 14.8932 26.1874 13.9938 27.3206 12.7706C27.54 12.5548 27.7227 12.3029 27.9055 12.0511C27.7593 12.3029 27.6131 12.5908 27.4669 12.8426Z" fill="url(#paint1_linear_1_641)"/>
<path d="M16.9019 31.5862C16.7557 31.838 16.5729 32.1258 16.4267 32.3777C13.8677 35.9394 8.93249 37.1266 4.98434 34.968C0.999642 32.7734 -0.572305 28.0245 1.14587 24.0311C1.32865 23.7793 1.51144 23.5635 1.69422 23.3116C2.9006 21.9445 4.5091 21.0091 6.22728 20.5774L6.48318 20.5055L7.54333 20.2536L18.7297 17.6993L20.6307 17.2676C19.6437 17.5554 18.7663 18.131 18.1083 18.9585C17.9255 19.1743 17.7427 19.4262 17.5965 19.714C17.4502 20.0018 17.304 20.2536 17.2309 20.5414C16.8288 21.6927 16.8653 22.9159 17.304 23.9952C17.3406 24.0671 17.3771 24.1391 17.3771 24.211C18.2179 26.2617 18.2179 28.6361 17.2675 30.7947C17.1944 31.0466 17.0481 31.3344 16.9019 31.5862Z" fill="url(#paint2_linear_1_641)"/>
<path d="M115.984 23.8869C116.345 23.3245 116.842 22.8703 117.477 22.5242C118.111 22.1782 118.854 22.0051 119.705 22.0051C120.7 22.0051 121.601 22.2575 122.408 22.7622C123.216 23.2668 123.85 23.9878 124.312 24.9251C124.788 25.8624 125.025 26.951 125.025 28.1911C125.025 29.4312 124.788 30.5271 124.312 31.4788C123.85 32.4161 123.216 33.1443 122.408 33.6634C121.601 34.1681 120.7 34.4204 119.705 34.4204C118.868 34.4204 118.126 34.2474 117.477 33.9013C116.842 33.5552 116.345 33.1082 115.984 32.5603V40.0008H112.286V22.1782H115.984V23.8869ZM121.262 28.1911C121.262 27.2683 121.002 26.5473 120.483 26.0282C119.979 25.4947 119.351 25.2279 118.602 25.2279C117.866 25.2279 117.239 25.4947 116.72 26.0282C116.215 26.5617 115.963 27.2899 115.963 28.2128C115.963 29.1356 116.215 29.8638 116.72 30.3973C117.239 30.9309 117.866 31.1976 118.602 31.1976C119.337 31.1976 119.964 30.9309 120.483 30.3973C121.002 29.8494 121.262 29.114 121.262 28.1911Z" fill="white"/>
<path d="M107.767 20.924C107.118 20.924 106.585 20.7365 106.166 20.3616C105.763 19.9723 105.561 19.4964 105.561 18.9341C105.561 18.3573 105.763 17.8814 106.166 17.5065C106.585 17.1172 107.118 16.9225 107.767 16.9225C108.402 16.9225 108.921 17.1172 109.324 17.5065C109.743 17.8814 109.952 18.3573 109.952 18.9341C109.952 19.4964 109.743 19.9723 109.324 20.3616C108.921 20.7365 108.402 20.924 107.767 20.924ZM109.606 22.1785V34.2477H105.907V22.1785H109.606Z" fill="white"/>
<path d="M103.226 18.2418V34.2476H99.5277V18.2418H103.226Z" fill="white"/>
<path d="M97.7902 25.2492H95.8003V34.247H92.1016V25.2492H90.7606V22.1778H92.1016V21.8317C92.1016 20.3465 92.527 19.2218 93.3778 18.4575C94.2285 17.6789 95.4758 17.2895 97.1197 17.2895C97.3936 17.2895 97.5955 17.2967 97.7253 17.3112V20.4474C97.0187 20.4042 96.5212 20.5051 96.2328 20.7502C95.9445 20.9954 95.8003 21.4352 95.8003 22.0696V22.1778H97.7902V25.2492Z" fill="white"/>
<path d="M83.4557 34.4204C82.2732 34.4204 81.2062 34.1681 80.2545 33.6634C79.3172 33.1587 78.5746 32.4377 78.0267 31.5004C77.4931 30.5632 77.2264 29.4673 77.2264 28.2128C77.2264 26.9727 77.5004 25.884 78.0483 24.9467C78.5962 23.995 79.3461 23.2668 80.2978 22.7622C81.2495 22.2575 82.3165 22.0051 83.4989 22.0051C84.6813 22.0051 85.7484 22.2575 86.7001 22.7622C87.6518 23.2668 88.4016 23.995 88.9495 24.9467C89.4975 25.884 89.7714 26.9727 89.7714 28.2128C89.7714 29.4528 89.4903 30.5487 88.9279 31.5004C88.3799 32.4377 87.6229 33.1587 86.6568 33.6634C85.7051 34.1681 84.6381 34.4204 83.4557 34.4204ZM83.4557 31.2192C84.1622 31.2192 84.7606 30.9597 85.2509 30.4406C85.7556 29.9215 86.0079 29.1789 86.0079 28.2128C86.0079 27.2466 85.7628 26.504 85.2725 25.9849C84.7967 25.4658 84.2055 25.2063 83.4989 25.2063C82.7779 25.2063 82.1795 25.4658 81.7037 25.9849C81.2278 26.4896 80.9899 27.2322 80.9899 28.2128C80.9899 29.1789 81.2206 29.9215 81.682 30.4406C82.1579 30.9597 82.7491 31.2192 83.4557 31.2192Z" fill="white"/>
<path d="M72.4087 24.1896C72.8413 23.5263 73.382 23.0071 74.0309 22.6322C74.6798 22.2429 75.4008 22.0482 76.1938 22.0482V25.9632H75.1773C74.2544 25.9632 73.5623 26.165 73.1008 26.5688C72.6394 26.9581 72.4087 27.6503 72.4087 28.6452V34.2472H68.7101V22.178H72.4087V24.1896Z" fill="white"/>
<path d="M66.0537 22.1785V34.2477H62.3551V32.6039C61.9802 33.1374 61.4683 33.57 60.8194 33.9016C60.1849 34.2189 59.4784 34.3775 58.6997 34.3775C57.7769 34.3775 56.9621 34.1756 56.2556 33.7719C55.549 33.3537 55.0011 32.7553 54.6117 31.9766C54.2224 31.198 54.0278 30.2823 54.0278 29.2297V22.1785H57.7048V28.7322C57.7048 29.5397 57.9138 30.167 58.332 30.614C58.7502 31.061 59.3125 31.2845 60.0191 31.2845C60.7401 31.2845 61.3097 31.061 61.7278 30.614C62.146 30.167 62.3551 29.5397 62.3551 28.7322V22.1785H66.0537Z" fill="white"/>
<path d="M52.1844 28.0181C52.1844 28.3642 52.1628 28.7247 52.1195 29.0996H43.749C43.8066 29.8494 44.0446 30.4262 44.4627 30.8299C44.8953 31.2192 45.4216 31.4139 46.0417 31.4139C46.9645 31.4139 47.6062 31.0246 47.9667 30.2459H51.9032C51.7014 31.039 51.3337 31.7528 50.8001 32.3872C50.281 33.0217 49.625 33.5192 48.8319 33.8797C48.0388 34.2402 47.152 34.4204 46.1715 34.4204C44.989 34.4204 43.9364 34.1681 43.0136 33.6634C42.0907 33.1587 41.3697 32.4377 40.8506 31.5004C40.3315 30.5632 40.072 29.4673 40.072 28.2128C40.072 26.9583 40.3243 25.8624 40.829 24.9251C41.3481 23.9878 42.0691 23.2668 42.9919 22.7622C43.9148 22.2575 44.9746 22.0051 46.1715 22.0051C47.3394 22.0051 48.3777 22.2503 49.2861 22.7405C50.1945 23.2308 50.9011 23.9301 51.4058 24.8386C51.9249 25.747 52.1844 26.8069 52.1844 28.0181ZM48.3993 27.0448C48.3993 26.4103 48.183 25.9056 47.7504 25.5307C47.3178 25.1558 46.7771 24.9684 46.1282 24.9684C45.5082 24.9684 44.9818 25.1486 44.5492 25.5091C44.1311 25.8696 43.8715 26.3815 43.7706 27.0448H48.3993Z" fill="white"/>
<path d="M33.5868 22.0482C34.9999 22.0482 36.1246 22.5097 36.961 23.4325C37.8117 24.341 38.2371 25.5955 38.2371 27.196V34.2472H34.5601V27.6935C34.5601 26.886 34.351 26.2588 33.9329 25.8118C33.5147 25.3648 32.9523 25.1413 32.2458 25.1413C31.5392 25.1413 30.9768 25.3648 30.5587 25.8118C30.1405 26.2588 29.9314 26.886 29.9314 27.6935V34.2472H26.2328V22.178H29.9314V23.7786C30.3063 23.2451 30.811 22.8269 31.4455 22.5241C32.0799 22.2069 32.7937 22.0482 33.5868 22.0482Z" fill="white"/>
<defs>
<linearGradient id="paint0_linear_1_641" x1="12.7389" y1="21.1251" x2="31.8684" y2="-13.9464" gradientUnits="userSpaceOnUse">
<stop stop-color="white"/>
<stop offset="0.00274884" stop-color="#F7986A"/>
<stop offset="0.1346" stop-color="#F9B08B"/>
<stop offset="0.3139" stop-color="#FCCDB3"/>
<stop offset="0.4788" stop-color="#FDE1CF"/>
<stop offset="0.6225" stop-color="#FFEEE0"/>
<stop offset="0.729" stop-color="#FFF2E6"/>
</linearGradient>
<linearGradient id="paint1_linear_1_641" x1="28.8167" y1="9.80972" x2="2.79766" y2="25.2248" gradientUnits="userSpaceOnUse">
<stop stop-color="white"/>
<stop offset="0.00274884" stop-color="#F7986A"/>
<stop offset="0.8447" stop-color="#FFF2E6"/>
</linearGradient>
<linearGradient id="paint2_linear_1_641" x1="21.8158" y1="15.3624" x2="2.015" y2="35.4827" gradientUnits="userSpaceOnUse">
<stop stop-color="white"/>
<stop offset="0.00274884" stop-color="#5C4966"/>
<stop offset="1" stop-color="#F7986A"/>
</linearGradient>
</defs>
</svg>
