<svg width="1240" height="220" viewBox="0 0 1240 220" fill="none" xmlns="http://www.w3.org/2000/svg">
<path d="M1191.95 72.1304C1190.49 67.0429 1188.43 62.5478 1185.78 58.6451C1183.13 54.6727 1179.89 51.3276 1176.06 48.6096C1172.3 45.8219 1167.98 43.6964 1163.1 42.2329C1158.29 40.7693 1152.96 40.0376 1147.1 40.0376C1136.16 40.0376 1126.54 42.7555 1118.25 48.1914C1110.03 53.6273 1103.62 61.5373 1099.02 71.9213C1094.42 82.2356 1092.12 94.8497 1092.12 109.764C1092.12 124.677 1094.38 137.361 1098.91 147.815C1103.44 158.269 1109.85 166.248 1118.15 171.754C1126.44 177.19 1136.23 179.908 1147.52 179.908C1157.77 179.908 1166.51 178.096 1173.76 174.472C1181.08 170.778 1186.65 165.586 1190.49 158.896C1194.39 152.206 1196.34 144.296 1196.34 135.166L1205.54 136.525H1150.34V102.446H1239.93V129.417C1239.93 148.233 1235.96 164.401 1228.01 177.922C1220.07 191.372 1209.13 201.756 1195.19 209.074C1181.25 216.321 1165.29 219.945 1147.31 219.945C1127.24 219.945 1109.61 215.52 1094.42 206.669C1079.22 197.749 1067.38 185.1 1058.87 168.722C1050.44 152.275 1046.23 132.762 1046.23 110.182C1046.23 92.8286 1048.73 77.3572 1053.75 63.7674C1058.84 50.108 1065.95 38.5392 1075.08 29.0612C1084.21 19.5832 1094.84 12.3702 1106.96 7.42211C1119.09 2.47404 1132.22 0 1146.37 0C1158.5 0 1169.79 1.77713 1180.24 5.33138C1190.7 8.81594 1199.96 13.764 1208.05 20.1756C1216.2 26.5872 1222.86 34.2184 1228.01 43.0691C1233.17 51.8502 1236.48 61.5373 1237.95 72.1304H1191.95Z" fill="#796B83"/>
<path d="M856.448 217.015V2.92383H940.914C957.152 2.92383 970.986 6.02509 982.415 12.2276C993.845 18.3604 1002.56 26.8976 1008.55 37.8391C1014.61 48.7109 1017.64 61.2553 1017.64 75.4723C1017.64 89.6893 1014.58 102.234 1008.44 113.106C1002.31 123.977 993.426 132.445 981.788 138.508C970.219 144.571 956.211 147.603 939.764 147.603H885.928V111.328H932.447C941.158 111.328 948.336 109.83 953.981 106.833C959.696 103.767 963.947 99.5506 966.735 94.1844C969.592 88.7485 971.021 82.5111 971.021 75.4723C971.021 68.3638 969.592 62.1613 966.735 56.8648C963.947 51.4986 959.696 47.3519 953.981 44.4249C948.267 41.4282 941.019 39.9298 932.238 39.9298H901.713V217.015H856.448Z" fill="#796B83"/>
<path d="M577.642 40.2434V2.92383H753.472V40.2434H687.928V217.015H643.186V40.2434H577.642Z" fill="#796B83"/>
<path d="M402.604 217.015V2.92383H546.865V40.2434H447.869V91.2574H539.443V128.577H447.869V179.695H547.283V217.015H402.604Z" fill="#796B83"/>
<path d="M219.413 217.015V2.92383H363.674V40.2434H264.678V91.2574H356.252V128.577H264.678V179.695H364.092V217.015H219.413Z" fill="#796B83"/>
<path d="M179.071 2.92383V217.015H139.975L46.8325 82.2672H45.2644V217.015H0V2.92383H39.724L132.134 137.567H134.016V2.92383H179.071Z" fill="#796B83"/>
</svg>
