<svg width="407" height="691" viewBox="0 0 407 691" fill="none" xmlns="http://www.w3.org/2000/svg">
<path d="M-0.5 0.5L406 273.204V614" stroke="#ECEFFF" stroke-opacity="0.2"/>
<path d="M-23 0.5L382.614 272.61C383.168 272.981 383.5 273.604 383.5 274.271V614" stroke="#ECEFFF" stroke-opacity="0.2"/>
<path d="M-45.5 0.5L358.343 271.421C360.004 272.535 361 274.404 361 276.404V614" stroke="#ECEFFF" stroke-opacity="0.2"/>
<path d="M-68 0.5L334.071 270.233C336.839 272.09 338.5 275.204 338.5 278.537V614" stroke="#ECEFFF" stroke-opacity="0.2"/>
<path d="M-90.5 0.5L308.914 268.45C313.343 271.421 316 276.404 316 281.737V614" stroke="#ECEFFF" stroke-opacity="0.2"/>
<path d="M-113 0.5L284.642 267.262C290.178 270.976 293.5 277.204 293.5 283.87V614" stroke="#ECEFFF" stroke-opacity="0.2"/>
<path d="M-135.5 0.5L259.928 265.776C266.848 270.418 271 278.204 271 286.537V614" stroke="#ECEFFF" stroke-opacity="0.2"/>
<path d="M-158 0.5L234.327 263.696C243.185 269.639 248.5 279.604 248.5 290.27V614" stroke="#ECEFFF" stroke-opacity="0.2"/>
<path d="M-180.5 0.5L212.713 264.29C221.017 269.861 226 279.204 226 289.204V614" stroke="#ECEFFF" stroke-opacity="0.2"/>
<path d="M-203 0.5L187.556 262.508C197.521 269.193 203.5 280.404 203.5 292.404V614" stroke="#ECEFFF" stroke-opacity="0.2"/>
<path d="M-225.5 0.5L163.284 261.319C174.357 268.747 181 281.204 181 294.537V614" stroke="#ECEFFF" stroke-opacity="0.2"/>
<path d="M-248 0.5L139.456 260.428C151.358 268.413 158.5 281.804 158.5 296.137V614" stroke="#ECEFFF" stroke-opacity="0.2"/>
<path d="M-270.5 0.5L116.07 259.834C128.526 268.19 136 282.204 136 297.203V614" stroke="#ECEFFF" stroke-opacity="0.2"/>
<path d="M-293 0.5L91.3554 258.348C105.196 267.633 113.5 283.204 113.5 299.87V614" stroke="#ECEFFF" stroke-opacity="0.2"/>
<path d="M-315.5 0.5L68.8554 258.348C82.6958 267.633 91 283.204 91 299.87V614" stroke="#ECEFFF" stroke-opacity="0.2"/>
<path d="M-338 0.5L42.3693 255.674C58.701 266.63 68.5 285.004 68.5 304.67V614" stroke="#ECEFFF" stroke-opacity="0.2"/>
<path d="M135 530.5C135 531.052 135.448 531.5 136 531.5C136.552 531.5 137 531.052 137 530.5H135ZM136 434H135V530.5H136H137V434H136Z" fill="url(#paint0_linear_0_1)"/>
<path d="M383 689.5C383 690.052 383.448 690.5 384 690.5C384.552 690.5 385 690.052 385 689.5H383ZM384 593H383V689.5H384H385V593H384Z" fill="url(#paint1_linear_0_1)"/>
<defs>
<linearGradient id="paint0_linear_0_1" x1="136.5" y1="434" x2="136.5" y2="530.5" gradientUnits="userSpaceOnUse">
<stop stop-color="white" stop-opacity="0"/>
<stop offset="1" stop-color="white"/>
</linearGradient>
<linearGradient id="paint1_linear_0_1" x1="384.5" y1="593" x2="384.5" y2="689.5" gradientUnits="userSpaceOnUse">
<stop stop-color="white" stop-opacity="0"/>
<stop offset="1" stop-color="white"/>
</linearGradient>
</defs>
</svg>
