<svg width="407" height="691" viewBox="0 0 407 691" fill="none" xmlns="http://www.w3.org/2000/svg">
<path d="M407.5 0.5L1 273.204V614" stroke="#ECEFFF" stroke-opacity="0.2"/>
<path d="M430 0.5L24.3858 272.61C23.8322 272.981 23.5 273.604 23.5 274.271V614" stroke="#ECEFFF" stroke-opacity="0.2"/>
<path d="M452.5 0.5L48.6573 271.421C46.9965 272.535 46 274.404 46 276.404V614" stroke="#ECEFFF" stroke-opacity="0.2"/>
<path d="M475 0.5L72.9289 270.233C70.1608 272.09 68.5 275.204 68.5 278.537V614" stroke="#ECEFFF" stroke-opacity="0.2"/>
<path d="M497.5 0.5L98.0863 268.45C93.6573 271.421 91 276.404 91 281.737V614" stroke="#ECEFFF" stroke-opacity="0.2"/>
<path d="M520 0.5L122.358 267.262C116.822 270.976 113.5 277.204 113.5 283.87V614" stroke="#ECEFFF" stroke-opacity="0.2"/>
<path d="M542.5 0.5L147.072 265.776C140.152 270.418 136 278.204 136 286.537V614" stroke="#ECEFFF" stroke-opacity="0.2"/>
<path d="M565 0.5L172.673 263.696C163.815 269.639 158.5 279.604 158.5 290.27V614" stroke="#ECEFFF" stroke-opacity="0.2"/>
<path d="M587.5 0.5L194.287 264.29C185.983 269.861 181 279.204 181 289.204V614" stroke="#ECEFFF" stroke-opacity="0.2"/>
<path d="M610 0.5L219.444 262.508C209.479 269.193 203.5 280.404 203.5 292.404V614" stroke="#ECEFFF" stroke-opacity="0.2"/>
<path d="M632.5 0.5L243.716 261.319C232.643 268.747 226 281.204 226 294.537V614" stroke="#ECEFFF" stroke-opacity="0.2"/>
<path d="M655 0.5L267.544 260.428C255.642 268.413 248.5 281.804 248.5 296.137V614" stroke="#ECEFFF" stroke-opacity="0.2"/>
<path d="M677.5 0.5L290.93 259.834C278.474 268.19 271 282.204 271 297.203V614" stroke="#ECEFFF" stroke-opacity="0.2"/>
<path d="M700 0.5L315.645 258.348C301.804 267.633 293.5 283.204 293.5 299.87V614" stroke="#ECEFFF" stroke-opacity="0.2"/>
<path d="M722.5 0.5L338.145 258.348C324.304 267.633 316 283.204 316 299.87V614" stroke="#ECEFFF" stroke-opacity="0.2"/>
<path d="M745 0.5L364.631 255.674C348.299 266.63 338.5 285.004 338.5 304.67V614" stroke="#ECEFFF" stroke-opacity="0.2"/>
<path d="M68 521.5C68 522.052 68.4477 522.5 69 522.5C69.5523 522.5 70 522.052 70 521.5H68ZM69 425H68V521.5H69H70V425H69Z" fill="url(#paint0_linear_0_1)"/>
<path d="M293 689.5C293 690.052 293.448 690.5 294 690.5C294.552 690.5 295 690.052 295 689.5H293ZM294 593H293V689.5H294H295V593H294Z" fill="url(#paint1_linear_0_1)"/>
<defs>
<linearGradient id="paint0_linear_0_1" x1="69.5" y1="425" x2="69.5" y2="521.5" gradientUnits="userSpaceOnUse">
<stop stop-color="white" stop-opacity="0"/>
<stop offset="1" stop-color="white"/>
</linearGradient>
<linearGradient id="paint1_linear_0_1" x1="294.5" y1="593" x2="294.5" y2="689.5" gradientUnits="userSpaceOnUse">
<stop stop-color="white" stop-opacity="0"/>
<stop offset="1" stop-color="white"/>
</linearGradient>
</defs>
</svg>
