<svg width="20" height="20" viewBox="0 0 20 20" fill="none" xmlns="http://www.w3.org/2000/svg">
<path d="M17.1546 11.1784C17.8055 10.5275 17.8055 9.47227 17.1546 8.8214L16.3213 7.98807C16.0087 7.67551 15.8331 7.25158 15.8331 6.80955V5.83324C15.8331 4.91277 15.0869 4.16658 14.1665 4.16658H13.1901C12.7481 4.16658 12.3242 3.99098 12.0116 3.67842L11.1783 2.84509C10.5274 2.19422 9.47215 2.19421 8.82128 2.84509L7.98794 3.67842C7.67538 3.99098 7.25146 4.16658 6.80943 4.16658H5.83312C4.91265 4.16658 4.16646 4.91277 4.16646 5.83324V6.80955C4.16646 7.25158 3.99086 7.67551 3.6783 7.98807L2.84497 8.8214C2.19409 9.47227 2.19409 10.5275 2.84497 11.1784L3.6783 12.0118C3.99086 12.3243 4.16646 12.7482 4.16646 13.1903V14.1666C4.16646 15.0871 4.91265 15.8332 5.83312 15.8332H6.80943C7.25146 15.8332 7.67538 16.0088 7.98794 16.3214L8.82128 17.1547C9.47215 17.8056 10.5274 17.8056 11.1783 17.1547L12.0116 16.3214C12.3242 16.0088 12.7481 15.8332 13.1901 15.8332H14.1665C15.0869 15.8332 15.8331 15.0871 15.8331 14.1666V13.1903C15.8331 12.7482 16.0087 12.3243 16.3213 12.0118L17.1546 11.1784Z" stroke="#F3BA58" stroke-width="1.5" stroke-linecap="round"/>
<path d="M7.91663 10.3408L8.8815 11.3056C8.91345 11.3376 8.96526 11.3376 8.99721 11.3056L11.6666 8.63623" stroke="#F3BA58" stroke-width="1.5" stroke-linecap="round"/>
</svg>
